<?xml version="1.0" encoding="utf-8"?>
<!-- Generator: Adobe Illustrator 17.0.0, SVG Export Plug-In . SVG Version: 6.00 Build 0)  -->
<!DOCTYPE svg PUBLIC "-//W3C//DTD SVG 1.1//EN" "http://www.w3.org/Graphics/SVG/1.1/DTD/svg11.dtd">
<svg version="1.1" id="Layer_1" xmlns="http://www.w3.org/2000/svg" xmlns:xlink="http://www.w3.org/1999/xlink" x="0px" y="0px"
	 width="522.875px" height="149.667px" viewBox="0 0 522.875 149.667" enable-background="new 0 0 522.875 149.667"
	 xml:space="preserve">
<g>
	<path fill="#EC202A" d="M505.204,142.137c0,3.584-3.622,6.49-8.089,6.49H98.167c-4.467,0-8.089-2.906-8.089-6.49v-16.733
		c0-3.584,3.622-6.49,8.089-6.49h398.949c4.467,0,8.089,2.906,8.089,6.49V142.137z"/>
	<path fill="#FFFFFF" d="M99.622,141.386H96.13l5.657-15.866h3.822l5.59,15.866h-3.601l-1.017-3.27h-5.856L99.622,141.386z
		 M101.61,135.376h4.044l-1.967-6.275h-0.043L101.61,135.376z"/>
	<polygon fill="#FFFFFF" points="128.545,141.386 125.452,141.386 125.452,128.128 125.408,128.128 122.447,141.386 
		119.199,141.386 116.304,128.128 116.26,128.128 116.26,141.386 113.166,141.386 113.166,125.521 118.005,125.521 120.878,138.027 
		120.923,138.027 123.75,125.521 128.545,125.521 	"/>
	<polygon fill="#FFFFFF" points="143.394,128.327 134.975,128.327 134.975,131.664 142.71,131.664 142.71,134.47 134.975,134.47 
		134.975,138.58 143.77,138.58 143.77,141.386 131.727,141.386 131.727,125.521 143.394,125.521 	"/>
	<path fill="#FFFFFF" d="M146.466,125.521h8.021c4.22,0,4.993,3.115,4.993,4.485c0,1.746-0.884,3.248-2.452,3.778
		c1.303,0.575,2.01,1.061,2.01,4.022c0,2.32,0,2.895,0.707,3.16v0.42h-3.668c-0.221-0.751-0.354-1.569-0.354-3.204
		c0-2.166-0.133-3.005-2.585-3.005h-3.424v6.209h-3.248V125.521z M153.603,132.503c1.724,0,2.563-0.596,2.563-2.165
		c0-0.84-0.376-2.078-2.321-2.078h-4.131v4.243H153.603z"/>
	<rect x="162.154" y="125.521" fill="#FFFFFF" width="3.315" height="15.865"/>
	<path fill="#FFFFFF" d="M178.683,130.714c-0.265-0.95-0.773-2.74-3.514-2.74c-1.591,0-3.933,1.061-3.933,5.547
		c0,2.85,1.127,5.413,3.933,5.413c1.834,0,3.116-1.039,3.514-2.983h3.315c-0.663,3.446-2.916,5.855-6.895,5.855
		c-4.22,0-7.247-2.85-7.247-8.331c0-5.546,3.203-8.374,7.291-8.374c4.751,0,6.673,3.27,6.85,5.612H178.683z"/>
	<path fill="#FFFFFF" d="M185.887,141.386h-3.492l5.657-15.866h3.822l5.59,15.866h-3.601l-1.017-3.27h-5.856L185.887,141.386z
		 M187.875,135.376h4.044l-1.967-6.275h-0.044L187.875,135.376z"/>
	<polygon fill="#FFFFFF" points="209.264,125.521 212.357,125.521 212.357,141.386 209.043,141.386 202.569,130.073 
		202.525,130.073 202.525,141.386 199.431,141.386 199.431,125.521 202.923,125.521 209.22,136.569 209.264,136.569 	"/>
	<polygon fill="#FFFFFF" points="224.997,141.386 221.682,141.386 221.682,125.521 232.974,125.521 232.974,128.327 
		224.997,128.327 224.997,131.907 231.979,131.907 231.979,134.713 224.997,134.713 	"/>
	<path fill="#FFFFFF" d="M235.184,125.521h8.021c4.22,0,4.994,3.115,4.994,4.485c0,1.746-0.884,3.248-2.453,3.778
		c1.303,0.575,2.01,1.061,2.01,4.022c0,2.32,0,2.895,0.707,3.16v0.42h-3.668c-0.221-0.751-0.354-1.569-0.354-3.204
		c0-2.166-0.133-3.005-2.585-3.005h-3.425v6.209h-3.248V125.521z M242.321,132.503c1.724,0,2.563-0.596,2.563-2.165
		c0-0.84-0.376-2.078-2.321-2.078h-4.131v4.243H242.321z"/>
	<rect x="250.872" y="125.521" fill="#FFFFFF" width="3.315" height="15.865"/>
	<polygon fill="#FFFFFF" points="268.947,128.327 260.528,128.327 260.528,131.664 268.262,131.664 268.262,134.47 260.528,134.47 
		260.528,138.58 269.323,138.58 269.323,141.386 257.28,141.386 257.28,125.521 268.947,125.521 	"/>
	<path fill="#FFFFFF" d="M272.018,125.521h7.005c5.347,0,6.451,4.552,6.451,7.557c0,3.403-1.348,8.308-6.584,8.308h-6.872V125.521z
		 M275.266,138.646h3.226c2.696,0,3.602-2.718,3.602-5.326c0-4.684-2.232-5.059-3.646-5.059h-3.182V138.646z"/>
	<path fill="#FFFFFF" d="M304.235,130.714c-0.265-0.95-0.773-2.74-3.514-2.74c-1.591,0-3.933,1.061-3.933,5.547
		c0,2.85,1.127,5.413,3.933,5.413c1.834,0,3.115-1.039,3.514-2.983h3.315c-0.663,3.446-2.916,5.855-6.895,5.855
		c-4.22,0-7.247-2.85-7.247-8.331c0-5.546,3.203-8.374,7.291-8.374c4.751,0,6.673,3.27,6.85,5.612H304.235z"/>
	<polygon fill="#FFFFFF" points="313.272,134.271 313.272,141.386 309.958,141.386 309.958,125.521 313.272,125.521 
		313.272,131.531 319.459,131.531 319.459,125.521 322.774,125.521 322.774,141.386 319.459,141.386 319.459,134.271 	"/>
	<rect x="325.757" y="125.521" fill="#FFFFFF" width="3.315" height="15.865"/>
	<path fill="#FFFFFF" d="M342.285,130.714c-0.265-0.95-0.773-2.74-3.514-2.74c-1.591,0-3.933,1.061-3.933,5.547
		c0,2.85,1.127,5.413,3.933,5.413c1.834,0,3.116-1.039,3.514-2.983h3.314c-0.663,3.446-2.916,5.855-6.895,5.855
		c-4.22,0-7.247-2.85-7.247-8.331c0-5.546,3.203-8.374,7.291-8.374c4.751,0,6.673,3.27,6.85,5.612H342.285z"/>
	<polygon fill="#FFFFFF" points="351.676,141.386 348.362,141.386 348.362,125.521 351.676,125.521 351.676,131.973 357.73,125.521 
		362.017,125.521 355.543,132.018 362.393,141.386 358.128,141.386 353.223,134.426 351.676,136.017 	"/>
	<polygon fill="#FFFFFF" points="375.739,128.327 367.32,128.327 367.32,131.664 375.054,131.664 375.054,134.47 367.32,134.47 
		367.32,138.58 376.115,138.58 376.115,141.386 364.072,141.386 364.072,125.521 375.739,125.521 	"/>
	<polygon fill="#FFFFFF" points="388.489,125.521 391.582,125.521 391.582,141.386 388.268,141.386 381.793,130.073 
		381.749,130.073 381.749,141.386 378.656,141.386 378.656,125.521 382.147,125.521 388.445,136.569 388.489,136.569 	"/>
	<path fill="#FFFFFF" d="M404.222,141.386h-3.315v-15.866h7.248c3.071,0,4.928,1.967,4.928,5.082c0,1.436-0.795,5.06-5.06,5.06h-3.8
		V141.386z M407.293,132.923c2.475,0,2.475-1.768,2.475-2.475c0-1.547-0.862-2.187-2.917-2.187h-2.629v4.662H407.293z"/>
	<polygon fill="#FFFFFF" points="424.838,125.521 428.284,125.521 422.893,141.386 419.733,141.386 414.386,125.521 
		417.943,125.521 421.346,137.541 421.391,137.541 	"/>
	<polygon fill="#FFFFFF" points="437.123,141.386 433.809,141.386 433.809,128.327 429.014,128.327 429.014,125.521 
		441.918,125.521 441.918,128.327 437.123,128.327 	"/>
	<rect x="441.853" y="138.16" fill="#FFFFFF" width="3.315" height="3.226"/>
	<polygon fill="#FFFFFF" points="456.834,138.514 464.722,138.514 464.722,141.386 453.52,141.386 453.52,125.521 456.834,125.521 	
		"/>
	<polygon fill="#FFFFFF" points="471.771,141.386 468.457,141.386 468.457,128.327 463.662,128.327 463.662,125.521 
		476.566,125.521 476.566,128.327 471.771,128.327 	"/>
	<path fill="#FFFFFF" d="M478.533,125.521h7.005c5.347,0,6.451,4.552,6.451,7.557c0,3.403-1.348,8.308-6.584,8.308h-6.872V125.521z
		 M481.781,138.646h3.226c2.696,0,3.601-2.718,3.601-5.326c0-4.684-2.232-5.059-3.646-5.059h-3.182V138.646z"/>
	<rect x="493.559" y="138.16" fill="#FFFFFF" width="3.315" height="3.226"/>
	<path fill="#EC202A" d="M90.292,41.907c-0.31,2.615-2.717,4.755-5.351,4.755H4.258c-2.633,0-4.534-2.14-4.226-4.755l3.485-29.452
		C3.827,9.84,6.235,7.7,8.869,7.7h80.683c2.634,0,4.535,2.14,4.226,4.756L90.292,41.907z"/>
	<path fill="#FFFFFF" d="M80.321,21.635h-0.654c-0.585-2.445-1.355-4.121-2.309-5.028c-0.953-0.908-2.506-1.362-4.66-1.362h-1.271
		L69.45,26.463h1.234c1.137,0,2.169-0.429,3.095-1.289c0.926-0.859,1.675-2.015,2.246-3.467h0.544l-1.896,10.746h-0.617
		c-0.115-1.815-0.474-3.11-1.076-3.885c-0.601-0.774-1.543-1.162-2.826-1.162h-0.871l-2.055,11.654h1.38
		c2.227,0,4.238-0.666,6.034-1.997c1.795-1.33,3.167-3.037,4.115-5.118h0.726l-1.685,7.914H57.866l0.141-0.798h2.141l4.199-23.816
		h-2.141l0.141-0.798h18.879L80.321,21.635z M60.737,15.137h-2.142L54.357,39.17h2.142l-0.121,0.689H45.014l0.121-0.689h2.142
		l2.087-11.836h-7.225L40.053,39.17h2.105l-0.121,0.689H30.71l0.121-0.689h2.142l4.238-24.033h-2.142l0.122-0.69h11.328l-0.122,0.69
		h-2.106L42.307,26.39h7.225l1.984-11.254h-2.141l0.121-0.69h11.363L60.737,15.137z M31.515,23.559h-0.69
		c-0.498-3.22-1.054-5.415-1.67-6.59c-0.617-1.173-1.699-1.761-3.247-1.761h-0.436l-4.212,23.888h3.086l-0.134,0.762H10.961
		l0.134-0.762h3.086l4.213-23.888h-0.473c-1.549,0-2.855,0.611-3.917,1.833c-1.063,1.222-2.378,3.395-3.945,6.517H9.37l1.97-9.112
		h21.42L31.515,23.559z"/>
	<path fill="#EC202A" d="M521.746,31.444c0,5.293-4.29,9.583-9.583,9.583c-5.293,0-9.583-4.29-9.583-9.583
		c0-5.293,4.29-9.583,9.583-9.583C517.456,21.86,521.746,26.151,521.746,31.444"/>
	<polygon fill="#FFFFFF" points="507.678,34.908 507.678,29.151 505.622,29.151 505.622,27.98 511.128,27.98 511.128,29.151 
		509.078,29.151 509.078,34.908 	"/>
	<polygon fill="#FFFFFF" points="512.012,34.908 512.012,27.98 514.106,27.98 515.363,32.706 516.606,27.98 518.704,27.98 
		518.704,34.908 517.405,34.908 517.405,29.454 516.03,34.908 514.683,34.908 513.312,29.454 513.312,34.908 	"/>
	<path fill="#EC202A" d="M156.072,91.192c-1.732-5.49-2.487-11.09-1.843-16.847c0.435-3.894,1.606-7.59,2.885-11.267
		c1.428-4.104,2.983-8.177,4.159-12.354c0.293-1.038,0.544-2.079,0.755-3.124c0.002-0.007,0.003-0.013,0.006-0.02
		c0.56-2.227,0.854-4.393,0.954-6.463c0.06-0.338,0.095-0.752,0.099-1.256c0.051-5.956-0.782-10.868-2.139-13.482
		c-1.356-2.613-1.628-3.612,1.813-5.055c2.757-1.157,3.959-1.354,5.94-3.738c1.981-2.384,0.188-5.001-2.665-4.83
		c-0.437,0.026-0.877,0.161-1.316,0.361h-0.001c-1.316,0.36-2.985,1.178-3.896,0c-0.91-1.179,0.55-2.852,0.55-2.852
		c2.429-2.736-0.03-4.633-2.29-4.235c-0.322,0.057-0.604,0.209-0.859,0.42c-0.007,0.005-0.013,0.01-0.02,0.015
		c-1.4,1.155-1.985,1.588-2.938,1.09c-0.706-0.369-0.431-2.73-0.423-2.804c0.274-1.068,0.074-1.969-1.455-2.329
		c-2.01-0.474-2.857,0.104-3.512,1.159c-1.464,1.874-1.76,1.937-3.142,1.876c-0.984-0.043-1.377-1.171-1.525-1.848
		c-0.017-0.174-0.044-0.34-0.083-0.498V3.112c-0.366-1.511-1.712-2.253-3.933-1.166c-3.239,1.587-3.165,6.682-3.165,6.682
		c-0.12,4.691,1.123,7.313,2.4,8.821c-1.758,1.134-4.473,1.891-5.988,3.198c0.514,0.248,3.206,1.129,4.516,3.587
		c0.8,1.254,0.826,2.236-0.424,3.088c-1.306,0.89-6.377,1.117-7.438,1.117c-1.458-0.001-2.843,0.36-4.103,1.119
		c-1.75,1.057-2.571,2.653-2.458,4.658c0.137,2.443,1.183,4.448,3.226,5.865c0.754,0.523,1.543,0.997,2.399,1.548
		c-0.243,0.161-0.381,0.281-0.539,0.354c-3.232,1.496-6.473,2.974-9.699,4.482c-4.461,2.086-8.712,4.508-12.424,7.792
		c-4.579,4.051-7.913,8.906-9.591,14.828c-1.507,5.315-1.452,10.687-0.618,16.1c0.844,5.47,2.856,10.42,6.36,14.73
		c3.772,4.639,8.288,8.308,13.874,10.566c0.447,0.181,0.916,0.31,1.374,0.462c0.052-0.084,0.104-0.166,0.156-0.25
		c-0.464-0.567-0.936-1.126-1.388-1.701c-2.635-3.343-5.446-6.565-7.859-10.062c-4.883-7.08-6.474-14.977-4.837-23.416
		c1.696-8.736,6.405-15.493,14.055-20.063c4.088-2.441,8.287-4.705,12.505-6.917c3.066-1.608,5.848-3.551,8.258-6.027
		c3.665-3.765,5.01-8.24,3.931-13.383c-0.445-2.125-1.067-4.212-1.606-6.318c-0.043-0.168-0.084-0.335-0.126-0.504
		c0.002-0.001,10.943-4.598,13.451,6.063c3.954,16.813-12.008,35.808-6.931,55.953c0.214,0.916,0.477,1.801,0.79,2.658v0.001
		c0.063,0.172,0.129,0.344,0.196,0.514c1.5,3.807,4.018,7.015,7.604,9.614c0.146,0.105,0.303,0.193,0.497,0.297
		c0.17,0.091,0.487-0.174,0.441-0.368c-0.055-0.226-0.102-0.411-0.164-0.591C157.276,94.691,156.628,92.955,156.072,91.192
		 M134.708,37.784c-1.246,0.169-2.576,0.012-3.827-0.216c-1.549-0.283-2.426-1.294-2.722-2.464
		c-0.744-2.937,3.161-3.915,3.609-4.001c2.625-0.503,6.237-1.196,8.864-1.679C140.852,29.383,142.179,36.703,134.708,37.784"/>
	<path fill="#EC202A" d="M228.167,64.795c-1.1-8.664-5.199-15.555-12.376-20.495c-7.69-5.293-16.284-7.109-25.494-5.963
		c-14.527,1.807-27.232,12.869-31.127,26.98c-1.548,5.603-1.863,11.304-1.344,17.063c0.36,4.006,1.312,7.839,3.492,11.294
		c2.531,4.011,6.106,6.496,10.754,7.431c1.307,0.244,1.137-0.365,1.042-0.442c-0.287-0.233-0.571-0.47-0.877-0.675
		c-4.62-3.083-4.037-8.576-2.052-11.55c3.301-4.948,11.09-6.431,15.94-2.98c3.455,2.458,5.698,5.767,6.636,9.922
		c0.555,2.458,0.73,4.953,0.407,7.45c-0.29,2.245-0.601,4.495-1.088,6.708c-0.377,1.714,0.108,1.665,0.493,1.059
		c4.983-5.86,7.434-12.525,6.346-20.266c-0.832-5.936-3.69-10.592-8.967-13.628c-2.264-1.303-4.698-2.166-7.228-2.778
		c-0.469-0.114-0.931-0.256-1.398-0.385c0.325-0.41,0.668-0.645,1.039-0.705c1.321-0.213,2.648-0.453,3.981-0.529
		c10.224-0.583,20.502,4.776,24.311,16.215c0.993,2.98,1.796,6.025,2.685,9.04c0.089,0.301,0.179,0.603,0.269,0.908
		c0.058,0.193,0.754,1.251,1.436-0.322c0.077-0.178,0.326-1.28,0.377-1.598c0.411-2.605,0.899-5.203,1.126-7.823
		c0.411-4.741,0.078-9.471-1.547-13.974c-3.339-9.26-9.604-15.255-19.595-16.698c-2.824-0.408-5.718-0.319-8.579-0.473
		c-0.414-0.022-0.892,0.178-1.329-0.265c0.326-0.239,0.57-0.447,0.842-0.609c0.555-0.332,1.104-0.686,1.693-0.948
		c5.458-2.422,11.172-3.188,16.951-1.772c7.009,1.716,12.521,5.808,16.627,11.755c2.416,3.499,4.045,7.368,5.299,11.409
		c0.057,0.184,0.117,0.369,0.186,0.572c0.088,0.265,0.334,1.235,0.644-0.077C228.508,73.381,228.716,69.103,228.167,64.795
		 M185.559,61.661c1.435-0.193,2.852-0.291,4.212-0.291c4.585,0,8.829,1.121,12.615,3.333c5.843,3.415,9.242,8.682,10.103,15.654
		c0.107,0.859,0.146,1.724,0.167,2.618c-4.7-7.032-11.346-11.717-19.785-13.939c-2.123-0.559-4.274-0.843-6.393-0.843
		c-3.963,0-7.93,0.986-11.79,2.929c-1.54,0.775-3.006,1.702-4.422,2.597c-0.336,0.212-0.679,0.428-1.022,0.644
		c0.859-3.704,2.872-6.614,6.132-8.871C178.301,63.466,181.728,62.177,185.559,61.661"/>
	<path fill-rule="evenodd" clip-rule="evenodd" fill="#EC202A" d="M228.841,104.289v6.528h30.095v-6.528h-4.416
		c0,0-1.763-0.175,0-2.728c1.763-2.565,5.886-9.338,5.886-9.338h21.989l4.278-16.648h-16.188l11.685-19.948l13.743,43.218
		c0,0,0.916,4.675-4.123,5.422h-4.123l0.07,6.551h43.372v-6.551c0,0-5.73,0.676-8.323-2.262c-2.368-2.787-4.659-13.92-4.659-13.92
		L302.091,33.71h-19.922L239.1,101.561C239.1,101.561,236.983,104.534,228.841,104.289"/>
	<path fill-rule="evenodd" clip-rule="evenodd" fill="#EC202A" d="M336.872,111.051l15.886-65.497c0,0,1.219-5.351-5.653-7.52
		l0.761-4.43h69.024l-4.373,20.717h-2.809c0,0-0.147-3.929-4.728-4.99c-4.581,0-25.506-0.152-25.506-0.152l-3.51,14.223
		l26.414,0.152l-3.812,19.668c0,0-4.122-4.244-8.859-4.244c-4.737,0-17.408-0.152-17.408-0.152l-4.883,19.971
		c0,0-1.072,5.748,5.497,7.263l-1.529,4.99H336.872z"/>
	<path fill-rule="evenodd" clip-rule="evenodd" fill="#EC202A" d="M490.522,54.753l3.89-0.116l4.581-17.022
		c0,0-16.37-7.053-43.061-1.842c-26.681,5.2-40.994,22.873-41.452,44.418c-0.458,21.545,25.039,30.51,49.473,30.942
		c16.267-0.56,24.123-3.323,24.123-3.323l3.215-15.331c0,0-34.823,13.442-47.192-11.274c-8.237-27.77,21.072-31.955,21.072-31.955
		S483.954,46.662,490.522,54.753"/>
	<path fill-rule="evenodd" clip-rule="evenodd" fill="#EC202A" d="M375.965,63.403l26.414,0.152l-3.812,19.668
		c0,0-4.123-4.244-8.859-4.244c-4.737,0-17.407-0.152-17.407-0.152L375.965,63.403z"/>
</g>
<g>
</g>
<g>
</g>
<g>
</g>
<g>
</g>
<g>
</g>
<g>
</g>
</svg>
